<svg width="30" height="30" viewBox="0 0 30 30" fill="none" xmlns="http://www.w3.org/2000/svg">
<path d="M3.24323 0H17.8378C18.6979 0 19.5229 0.31607 20.1311 0.87868C20.7393 1.44129 21.081 2.20435 21.081 3V6H17.8378V3H3.24323V27H17.8378V24H21.081V27C21.081 27.7956 20.7393 28.5587 20.1311 29.1213C19.5229 29.6839 18.6979 30 17.8378 30H3.24323C2.38307 30 1.55815 29.6839 0.949921 29.1213C0.341697 28.5587 0 27.7956 0 27V3C0 2.20435 0.341697 1.44129 0.949921 0.87868C1.55815 0.31607 2.38307 0 3.24323 0V0Z" fill="#D51A52"/>
<path d="M19.6054 20.3845L21.8919 22.4995L30 14.9995L21.8919 7.49951L19.6054 9.61451L23.7892 13.4995H8.10815V16.4995H23.7892L19.6054 20.3845Z" fill="#D51A52"/>
</svg>
