<svg width="21" height="22" viewBox="0 0 21 22" fill="none" xmlns="http://www.w3.org/2000/svg">
<mask id="mask0_360_2119" style="mask-type:luminance" maskUnits="userSpaceOnUse" x="0" y="0" width="21" height="22">
<path d="M3.31242 5.74984C4.37096 5.74984 5.22909 4.89172 5.22909 3.83317C5.22909 2.77462 4.37096 1.9165 3.31242 1.9165C2.25387 1.9165 1.39575 2.77462 1.39575 3.83317C1.39575 4.89172 2.25387 5.74984 3.31242 5.74984Z" fill="white" stroke="white" stroke-width="1.91667"/>
<path d="M1.39575 8.625H5.22908V20.6042H1.39575V8.625ZM9.06242 13.1771V20.6042H12.4166V13.8958C12.4166 12.6979 13.1353 11.7396 14.3333 11.7396C15.5312 11.7396 16.2499 12.9375 16.2499 13.8958V20.6042H19.6041V13.1771C19.6041 11.7396 17.927 8.625 14.3333 8.625C10.7395 8.625 9.06242 11.7396 9.06242 13.1771Z" fill="white" stroke="white" stroke-width="1.91667" stroke-linejoin="round"/>
</mask>
<g mask="url(#mask0_360_2119)">
<path d="M-1 0H22V23H-1V0Z" fill="#606461"/>
</g>
</svg>
