<svg width="23" height="23" viewBox="0 0 23 23" fill="none" xmlns="http://www.w3.org/2000/svg">
<path d="M11.5001 9.12317C11.03 9.12317 10.5705 9.26256 10.1797 9.52371C9.78884 9.78486 9.48421 10.156 9.30433 10.5903C9.12444 11.0246 9.07738 11.5025 9.16908 11.9635C9.26079 12.4245 9.48714 12.848 9.81952 13.1804C10.1519 13.5128 10.5754 13.7391 11.0364 13.8308C11.4974 13.9225 11.9753 13.8755 12.4096 13.6956C12.8439 13.5157 13.2151 13.2111 13.4762 12.8202C13.7374 12.4294 13.8767 11.9699 13.8767 11.4998C13.8767 11.1877 13.8153 10.8787 13.6958 10.5903C13.5764 10.302 13.4013 10.04 13.1806 9.81928C12.9599 9.59859 12.6979 9.42352 12.4096 9.30408C12.1212 9.18464 11.8122 9.12317 11.5001 9.12317ZM21.0163 6.77525C21.0113 6.03519 20.875 5.30188 20.6138 4.60942C20.4215 4.10271 20.1239 3.64255 19.7406 3.25931C19.3574 2.87606 18.8972 2.57844 18.3905 2.38609C17.698 2.12491 16.9647 1.98863 16.2247 1.98359C14.9884 1.9165 14.6242 1.9165 11.5001 1.9165C8.37591 1.9165 8.01175 1.9165 6.7755 1.98359C6.03543 1.98863 5.30213 2.12491 4.60966 2.38609C4.10296 2.57844 3.6428 2.87606 3.25955 3.25931C2.8763 3.64255 2.57869 4.10271 2.38633 4.60942C2.12515 5.30188 1.98887 6.03519 1.98383 6.77525C1.91675 8.0115 1.91675 8.37567 1.91675 11.4998C1.91675 14.624 1.91675 14.9882 1.98383 16.2244C1.99415 16.9671 2.13024 17.7026 2.38633 18.3998C2.57783 18.9042 2.8752 19.3617 3.25841 19.7415C3.64002 20.127 4.10116 20.4247 4.60966 20.6136C5.30213 20.8748 6.03543 21.011 6.7755 21.0161C8.01175 21.0832 8.37591 21.0832 11.5001 21.0832C14.6242 21.0832 14.9884 21.0832 16.2247 21.0161C16.9647 21.011 17.698 20.8748 18.3905 20.6136C18.899 20.4247 19.3601 20.127 19.7417 19.7415C20.125 19.3617 20.4223 18.9042 20.6138 18.3998C20.8748 17.704 21.011 16.9676 21.0163 16.2244C21.0834 14.9882 21.0834 14.624 21.0834 11.4998C21.0834 8.37567 21.0834 8.0115 21.0163 6.77525ZM18.5822 14.4419C18.5514 15.0333 18.4252 15.6158 18.2084 16.1669C18.0224 16.6266 17.7458 17.0442 17.3951 17.3949C17.0445 17.7455 16.6269 18.0221 16.1672 18.2082C15.6109 18.4129 15.0251 18.5261 14.4326 18.5436H8.56758C7.97507 18.5261 7.3893 18.4129 6.833 18.2082C6.35776 18.0316 5.9286 17.7498 5.57758 17.384C5.23035 17.0402 4.96218 16.6249 4.79175 16.1669C4.58624 15.6112 4.47608 15.0248 4.46591 14.4323V8.56734C4.47608 7.97492 4.58624 7.38848 4.79175 6.83275C4.96835 6.35752 5.25009 5.92835 5.61591 5.57734C5.96123 5.23198 6.37613 4.96409 6.833 4.7915C7.3893 4.58681 7.97507 4.47354 8.56758 4.45609H14.4326C15.0251 4.47354 15.6109 4.58681 16.1672 4.7915C16.6424 4.96811 17.0716 5.24985 17.4226 5.61567C17.7698 5.95947 18.038 6.3748 18.2084 6.83275C18.4131 7.38905 18.5264 7.97483 18.5438 8.56734V11.4998C18.5438 13.474 18.6109 13.6753 18.5822 14.4323V14.4419ZM17.0488 7.31192C16.9347 7.00236 16.7548 6.72124 16.5215 6.48796C16.2883 6.25467 16.0071 6.07477 15.6976 5.96067C15.2725 5.81334 14.8249 5.74197 14.3751 5.74984H8.62508C8.173 5.75426 7.72527 5.83861 7.30258 5.999C6.99776 6.10792 6.71962 6.28048 6.48664 6.5052C6.25366 6.72991 6.07118 7.00165 5.95133 7.30234C5.81216 7.72915 5.74417 8.17595 5.75008 8.62484V14.3748C5.75958 14.8264 5.84378 15.2733 5.99925 15.6973C6.11335 16.0069 6.29325 16.288 6.52654 16.5213C6.75982 16.7546 7.04094 16.9345 7.3505 17.0486C7.75939 17.199 8.18967 17.2831 8.62508 17.2978H14.3751C14.8272 17.2933 15.2749 17.209 15.6976 17.0486C16.0071 16.9345 16.2883 16.7546 16.5215 16.5213C16.7548 16.288 16.9347 16.0069 17.0488 15.6973C17.2092 15.2746 17.2936 14.8269 17.298 14.3748V8.62484C17.2983 8.17231 17.2138 7.72374 17.0488 7.30234V7.31192ZM11.5001 15.1607C11.0198 15.1607 10.5442 15.0659 10.1006 14.8818C9.65698 14.6977 9.25404 14.4279 8.91486 14.0879C8.57569 13.7478 8.30694 13.3441 8.12401 12.9001C7.94108 12.456 7.84757 11.9801 7.84883 11.4998C7.84883 10.7754 8.06378 10.0672 8.46646 9.46499C8.86915 8.86277 9.44146 8.39356 10.1109 8.11676C10.7804 7.83996 11.517 7.76803 12.2274 7.91006C12.9378 8.0521 13.5901 8.40171 14.1017 8.91464C14.6132 9.42758 14.9612 10.0808 15.1013 10.7915C15.2415 11.5023 15.1676 12.2387 14.8891 12.9074C14.6105 13.5762 14.1398 14.1473 13.5365 14.5484C12.9333 14.9495 12.2245 15.1626 11.5001 15.1607ZM15.3334 8.55775C15.1216 8.53533 14.9255 8.4353 14.783 8.27693C14.6405 8.11857 14.5617 7.91308 14.5617 7.70005C14.5617 7.48702 14.6405 7.28152 14.783 7.12316C14.9255 6.96479 15.1216 6.86476 15.3334 6.84234C15.5453 6.86476 15.7413 6.96479 15.8838 7.12316C16.0263 7.28152 16.1051 7.48702 16.1051 7.70005C16.1051 7.91308 16.0263 8.11857 15.8838 8.27693C15.7413 8.4353 15.5453 8.53533 15.3334 8.55775Z" fill="#606461"/>
</svg>
