<svg width="23" height="23" viewBox="0 0 23 23" fill="none" xmlns="http://www.w3.org/2000/svg">
<path d="M9.58341 14.3748L14.5572 11.4998L9.58341 8.62484V14.3748ZM20.6617 6.87109C20.7863 7.3215 20.8726 7.92525 20.9301 8.69192C20.9972 9.45859 21.0259 10.1198 21.0259 10.6948L21.0834 11.4998C21.0834 13.5986 20.9301 15.1415 20.6617 16.1286C20.4222 16.9911 19.8663 17.5469 19.0038 17.7865C18.5534 17.9111 17.7292 17.9973 16.4642 18.0548C15.2184 18.1219 14.078 18.1507 13.0238 18.1507L11.5001 18.2082C7.48466 18.2082 4.98341 18.0548 3.99633 17.7865C3.13383 17.5469 2.578 16.9911 2.33841 16.1286C2.21383 15.6782 2.12758 15.0744 2.07008 14.3078C2.003 13.5411 1.97425 12.8798 1.97425 12.3048L1.91675 11.4998C1.91675 9.40109 2.07008 7.85817 2.33841 6.87109C2.578 6.00859 3.13383 5.45275 3.99633 5.21317C4.44675 5.08859 5.27091 5.00234 6.53591 4.94484C7.78175 4.87775 8.92216 4.849 9.97633 4.849L11.5001 4.7915C15.5155 4.7915 18.0167 4.94484 19.0038 5.21317C19.8663 5.45275 20.4222 6.00859 20.6617 6.87109Z" fill="#606461"/>
</svg>
