<svg width="17" height="16" viewBox="0 0 17 16" fill="none" xmlns="http://www.w3.org/2000/svg">
<path d="M16.484 6.61544C16.589 7.10969 16.6462 7.62644 16.6462 8.16569C16.6462 12.3837 13.4338 15.3829 8.58195 15.3829C7.47857 15.3832 6.38594 15.1925 5.36649 14.8215C4.34704 14.4506 3.42075 13.9068 2.64055 13.2212C1.86035 12.5355 1.24152 11.7215 0.819433 10.8256C0.397345 9.92976 0.180267 8.96958 0.180603 7.99994C0.180267 7.03031 0.397345 6.07012 0.819433 5.17424C1.24152 4.27836 1.86035 3.46435 2.64055 2.77871C3.42075 2.09308 4.34704 1.54926 5.36649 1.17834C6.38594 0.807413 7.47857 0.616648 8.58195 0.616944C10.8504 0.616944 12.7459 1.35044 14.2002 2.54144L11.8319 4.62269V4.61744C10.9503 3.87944 9.8314 3.50069 8.58195 3.50069C5.80995 3.50069 3.55684 5.55869 3.55684 7.99544C3.55684 10.4314 5.80995 12.4939 8.58195 12.4939C11.0971 12.4939 12.8091 11.2302 13.1607 9.49469H8.58195V6.61544H16.4849H16.484Z" fill="#9D3FE7"/>
</svg>
