<svg width="14" height="14" viewBox="0 0 14 14" fill="none" xmlns="http://www.w3.org/2000/svg">
<path d="M12.32 9.84666C12.6058 9.56082 12.6058 9.09999 12.32 8.81416L7.41414 3.90832C7.36017 3.85425 7.29607 3.81134 7.2255 3.78207C7.15493 3.7528 7.07928 3.73773 7.00289 3.73773C6.92649 3.73773 6.85084 3.7528 6.78027 3.78207C6.7097 3.81134 6.6456 3.85425 6.59164 3.90832L1.67997 8.81999C1.39997 9.09999 1.39997 9.56666 1.67997 9.84666C1.7477 9.91456 1.82817 9.96844 1.91675 10.0052C2.00534 10.042 2.10031 10.0609 2.19622 10.0609C2.29213 10.0609 2.3871 10.042 2.47569 10.0052C2.56427 9.96844 2.64474 9.91456 2.71247 9.84666L6.99997 5.56499L11.2875 9.85249C11.5733 10.1325 12.0341 10.1325 12.32 9.84666Z" fill="#1A141F"/>
</svg>
