<svg width="214" height="197" viewBox="0 0 214 197" fill="none" xmlns="http://www.w3.org/2000/svg">
<g clip-path="url(#clip0_335_1978)">
<path d="M202.378 41.7361C200.184 43.719 198.158 44.7697 198.444 46.4533C198.439 46.5181 198.434 46.5828 198.429 46.6476C198.313 49.4083 198.07 52.1593 197.729 54.9354C197.226 59.0023 196.567 63.0248 195.342 66.9389C194.563 69.1928 193.877 71.4863 192.128 73.0795C183.528 78.32 168.692 80.8683 158.743 80.4015C153.309 79.7257 152.624 88.2426 158.059 88.4949C168.911 88.4117 187.356 83.7279 195.685 76.6096C201.296 69.5768 201.045 56.6223 201.067 47.5986C202.189 47.5214 203.463 47.13 204.66 46.5046C207.282 45.1735 208.924 42.8879 208.111 41.4248C206.778 38.8466 204.537 39.7832 202.378 41.7361Z" fill="white"/>
<path d="M35.9598 129.007C32.7161 127.356 29.247 127.218 25.9131 125.75C20.1464 123.457 9.51395 119.558 8.65795 112.54C8.88321 107.632 12.938 103.733 16.6773 100.889C20.8672 97.8615 25.778 95.8432 30.7788 94.9717C32.3556 94.6965 33.4369 93.137 33.1215 91.5315C31.4996 85.2016 16.6773 94.4672 13.7489 96.8982C9.01837 100.751 4.28785 106.164 4.51311 112.769C5.86469 123.457 21.1826 127.677 29.9228 130.016C27.1746 131.117 26.7691 135.153 28.6163 136.621C33.1215 140.245 39.9245 133.181 35.9598 129.007Z" fill="white"/>
<path d="M94.6524 159.36C95.4187 155.792 96.1255 152.247 96.7088 148.646C96.7271 148.605 96.7042 148.544 96.7225 148.502C96.8954 146.974 95.9072 145.62 94.5128 145.538C93.1184 145.456 91.8983 146.558 91.7254 148.086C91.3385 151.575 90.8511 155.069 90.3043 158.587C89.7163 162.085 89.046 165.546 88.2523 168.951C86.7332 175.49 84.8255 181.903 82.2639 188.119C80.9146 186.802 78.9618 185.511 77.3066 185.009C74.3848 184.131 73.531 186.203 73.1293 187.577C72.8191 188.741 80.1442 191.171 82.8415 191.093C83.0655 191.145 83.2849 191.094 83.4814 190.983C83.5409 190.959 83.6003 190.936 83.6597 190.913C83.9156 190.778 84.1076 190.564 84.2354 190.271C87.4506 183.801 90.0027 176.928 92.0245 169.914C92.9782 166.482 93.845 162.909 94.6524 159.36Z" fill="white"/>
<path d="M127.142 181.191C125.565 181.925 123.763 183.439 122.592 184.815C120.88 181.925 119.348 178.944 117.952 175.871C116.42 172.522 114.978 169.082 113.672 165.642C112.365 162.156 111.104 158.67 110.022 155.138C108.896 151.606 107.905 148.028 107.049 144.496C107.049 144.45 107.049 144.404 107.004 144.358C106.598 143.028 105.202 142.248 103.895 142.661C102.589 143.074 101.823 144.496 102.228 145.826C103.309 149.496 104.526 153.119 105.832 156.651C107.139 160.183 108.581 163.715 110.112 167.155C111.644 170.596 113.311 174.036 115.068 177.384C116.87 180.733 118.763 183.99 120.925 187.155C121.105 187.384 121.331 187.567 121.601 187.659H121.646C121.916 187.751 122.186 187.751 122.412 187.659C125.07 187.246 131.963 183.898 131.512 182.889C130.972 181.696 129.981 179.907 127.142 181.191Z" fill="white"/>
<path d="M172.256 91.4709C171.355 97.9385 164.552 102.663 162.165 108.397C159.687 114.314 160.948 122.57 157.074 127.524C153.199 132.57 145 133.212 139.999 137.019C134.998 140.826 132.069 148.624 126.213 151.009C120.446 153.349 113.057 149.771 106.795 150.551C100.713 151.285 94.3604 156.56 88.008 155.642C81.6556 154.725 77.0152 147.799 71.3836 145.368C65.5718 142.845 57.4623 144.129 52.5967 140.184C47.6409 136.239 47.0101 127.891 43.2708 122.8C39.5314 117.708 31.8724 114.727 29.5297 108.764C27.232 102.892 30.7461 95.3698 29.9802 88.994C29.2594 82.8016 24.0783 76.334 24.9794 69.8665C25.8804 63.3989 32.6834 58.6743 35.0712 52.9406C37.5491 47.0235 36.2876 38.767 40.1621 33.8131C44.0366 28.7675 52.2362 28.1253 57.2371 24.3181C62.2379 20.511 65.1663 12.7132 71.0232 10.328C76.7899 7.98863 84.1785 11.5664 90.4409 10.7867C96.523 10.0528 102.875 4.77777 109.228 5.69516C115.58 6.61255 120.221 13.5388 125.852 15.9699C131.664 18.4927 139.773 17.2084 144.639 21.1531C149.595 25.0979 150.226 33.4461 153.965 38.5377C157.704 43.6292 165.363 46.6107 167.706 52.5737C170.004 58.445 166.49 65.9676 167.256 72.3434C167.976 78.5358 173.157 85.0034 172.256 91.4709Z" fill="url(#paint0_linear_335_1978)"/>
<path d="M106.93 13.4012C114.634 12.2545 120.626 16.4286 126.168 21.3825C140.269 29.96 157.254 32.437 155.542 53.491C162.21 99.8191 174.419 89.4985 140.134 127.387C128.916 141.606 106.57 152.248 88.819 149.954C80.1239 148.165 73.0055 142.065 65.2565 137.707C53.8582 132.891 49.2628 126.561 44.3521 115.506C41.0182 110.415 35.6569 106.791 33.2691 101.195C31.1967 96.3331 31.7373 90.8287 32.278 85.5538C33.6295 75.8753 33.6295 65.8758 35.9723 56.3808C37.9546 50.8765 42.9554 46.9317 45.163 41.4733C46.019 39.3174 46.4695 36.9322 47.9112 35.0974C52.1912 30.0976 59.6249 30.0059 64.851 26.7492C76.5196 16.6579 91.9276 13.6305 106.93 13.4012Z" fill="url(#paint1_linear_335_1978)"/>
<path d="M56.5161 38.2166C59.3545 35.1434 64.085 35.6938 67.8694 33.9966C69.8968 33.0792 71.3835 31.3362 73.0054 29.7308C84.2235 18.6304 102.74 16.0617 116.436 23.7219C118.959 25.1438 121.392 26.9327 122.924 29.4097C124.501 32.0242 124.996 35.1434 125.717 38.079C127.384 44.7759 130.493 51.0142 133.556 57.2065C134.007 58.1239 134.502 59.0872 135.313 59.7294C138.061 61.977 142.522 59.3165 145.54 61.1513C148.288 62.8026 148.063 66.7933 148.108 70.05C148.153 74.4076 149.325 78.7193 151.397 82.4806C152.073 83.7191 152.884 85.0493 152.658 86.4254C152.523 87.2969 151.983 88.0308 151.532 88.7647C147.883 94.6819 148.333 102.159 147.568 109.085C146.802 116.011 143.828 123.901 137.205 125.69C133.646 126.653 129.907 125.598 126.213 125.231C122.563 124.91 118.238 125.644 116.391 128.855C114.274 132.478 116.211 137.753 113.553 141.01C112.607 142.203 111.165 142.891 109.768 143.441C103.912 145.826 97.514 146.744 91.2517 146.147C90.8913 142.982 90.4858 139.817 90.1254 136.652C90.0353 136.01 89.9452 135.322 89.5848 134.818C88.4134 133.258 86.0256 134.451 84.1334 135.001C78.8622 136.515 73.3658 131.515 68.0947 133.075C66.653 133.487 65.3465 134.359 63.8597 134.313C62.9136 134.267 62.0126 133.854 61.2016 133.35C57.6425 131.148 55.3448 127.341 53.3625 123.625C46.1991 110.094 40.973 95.5075 37.9094 80.4623C37.3688 77.756 36.8732 74.9121 37.4589 72.2058C38.7654 66.0593 45.1178 61.977 46.4694 55.8305C47.3705 51.794 45.298 46.7025 48.0462 43.6751C49.8483 41.932 54.8041 40.0973 56.5161 38.2166Z" fill="#B868F9"/>
<path d="M65.3465 43.0328C59.8952 48.0326 60.1204 54.7295 68.7255 54.9589C71.2484 55.0965 73.9065 54.8672 76.2042 55.9222C79.403 57.39 80.9347 60.876 81.4303 64.2245C82.0611 69.2701 81.5204 74.7286 85.0345 78.9486C86.4762 80.8292 89.1343 82.5264 91.3419 81.4714C98.3701 75.9671 85.0345 71.0132 86.3411 65.1419C87.0619 61.6558 92.0627 60.5091 95.6219 61.7934C99.136 63.0778 101.794 65.8299 105.083 67.6189C110.039 70.6462 117.112 68.9949 116.932 62.8943C117.608 55.8304 113.057 49.6839 107.11 45.9685C106.344 44.73 107.561 43.3081 108.101 41.9778C109.543 39.1339 105.443 30.2811 101.569 32.0701C99.136 34.3635 100.893 38.0789 99.9019 40.9228C98.7305 44.8676 92.8737 46.7024 89.4497 44.1796C85.8905 41.565 84.3587 36.1066 79.403 35.0516C74.1768 33.859 68.4101 39.8678 65.3465 43.0328Z" fill="#BA93D8"/>
<path d="M110.85 134.405C106.074 136.973 95.0361 134.726 89.9902 131.653C85.6201 128.442 81.5203 124.038 78.9523 119.222C75.213 110.415 80.1237 101.47 82.1961 93.3516C83.9532 85.0951 93.6395 92.526 94.4955 101.47C95.9372 116.516 130.988 109.543 117.247 125.139C115.175 128.029 113.778 132.295 110.85 134.405Z" fill="#BA93D8"/>
<path d="M57.3722 69.6829C61.9675 74.8662 61.6071 66.2886 66.2475 70.2792C67.1936 71.0131 68.32 71.8388 69.4913 71.4718C71.9242 70.4627 71.3385 67.0225 69.6715 65.4629C67.2837 63.2612 63.8597 62.7108 60.9313 61.4723C52.912 57.5275 53.5877 65.2336 57.3722 69.6829Z" fill="#BA93D8"/>
<path d="M66.4278 119.772C63.5445 121.791 59.8952 120.369 58.003 117.708C54.9394 114.314 51.8758 110.874 48.8122 107.479C43.9916 102.984 51.0198 97.6175 43.2708 89.5445C43.9465 87.6638 46.7398 87.4345 48.2716 88.6729C49.8484 89.9114 50.4792 91.9755 51.0198 93.9021C52.056 96.012 52.1461 102.847 55.2548 101.883C60.1204 101.241 64.8059 99.3146 68.7255 96.3331C69.7617 95.5533 71.1133 94.6818 72.1495 95.4157C74.6725 97.9844 69.5365 100.186 69.131 102.526C69.9419 107.571 71.3836 116.149 66.4278 119.772Z" fill="#BA93D8"/>
<path d="M118.148 66.885C114.724 70.9674 121.978 72.5269 123.104 75.6002C123.374 79.0863 124.591 82.8017 127.925 84.453C138.647 89.6821 145.765 73.1691 134.367 69.1326C127.925 68.628 129.772 62.3898 124.005 60.6009C120.401 59.4542 122.969 63.032 118.148 66.885Z" fill="#BA93D8"/>
<path d="M133.241 101.425C128.826 102.801 132.7 108.213 131.439 111.241C130.763 112.892 128.871 114.314 129.502 115.965C133.061 121.286 139.864 114.589 140.314 110.048C139.593 106.287 141.08 104.498 141.981 101.058C141.936 98.7641 142.387 96.2872 141.891 94.0854C141.125 91.9754 138.287 91.9754 138.107 94.3607C137.386 96.9293 138.107 99.5439 137.926 102.113C137.025 106.608 134.818 101.195 133.241 101.425Z" fill="#BA93D8"/>
<path d="M79.4911 83.3096C79.897 80.4514 74.0775 77.2293 66.4928 76.1127C58.9081 74.9962 52.4304 76.4081 52.0245 79.2663C51.6186 82.1245 57.4382 85.3467 65.0228 86.4632C72.6075 87.5798 79.0852 86.1679 79.4911 83.3096Z" fill="#FDE3FF"/>
<path d="M127.114 79.9118C126.483 80.5999 125.537 80.9668 124.636 80.8292C124.681 81.0586 124.771 81.3338 124.816 81.609C125.267 83.9483 124.951 87.8472 122.789 89.2692C119.995 90.6911 116.346 89.8655 113.688 87.9848C112.427 87.1133 111.39 85.9666 110.76 84.6822C110.67 84.4988 110.624 84.3611 110.534 84.1777C109.003 80.0035 113.823 75.1873 118.103 76.1047C120.221 76.1964 121.707 76.7009 122.744 77.5266C123.014 77.389 123.239 77.2055 123.419 77.022C123.51 76.8844 123.555 76.701 123.51 76.5633C123.51 76.5633 123.51 76.4716 123.464 76.4716C123.104 76.2423 122.969 75.7377 123.194 75.3707C123.419 75.0038 123.915 74.8662 124.275 75.0955C124.681 75.3249 124.951 75.7377 125.041 76.2423C125.176 76.8386 125.041 77.4807 124.681 77.9853C124.456 78.3522 124.14 78.6275 123.78 78.8109C123.87 78.9944 124.005 79.1779 124.095 79.3614C124.275 79.2696 124.456 79.2238 124.681 79.3155C125.131 79.4531 125.627 79.2696 125.942 78.9486C126.258 78.6275 126.348 78.077 126.213 77.6183C126.078 77.2055 126.258 76.7468 126.663 76.5633C127.069 76.4257 127.519 76.6092 127.699 77.022C128.06 77.9853 127.835 79.132 127.114 79.9118Z" fill="#1A141F"/>
<path d="M117.878 80.2329C117.608 81.9759 118.824 83.6272 120.581 83.9025C122.293 84.1777 123.915 82.9392 124.185 81.1503C124.456 79.4072 123.239 77.7559 121.482 77.4807C119.77 77.2514 118.148 78.4899 117.878 80.2329Z" fill="white"/>
<path d="M114.589 83.8107L113.688 87.9848C112.427 87.1133 111.39 85.9665 110.76 84.6822C110.67 84.4987 110.625 84.3611 110.534 84.1776L114.589 83.8107Z" fill="white"/>
<path d="M85.9806 81.2879C85.7553 81.2421 85.5751 81.1503 85.3949 81.0127C84.584 80.4164 82.1511 78.9945 80.5292 79.6825C79.8534 79.9577 79.0876 79.6366 78.8172 78.9486C78.5469 78.2605 78.8623 77.4808 79.5381 77.2055C80.9347 76.6551 82.3764 76.7927 83.5928 77.1597C82.1962 74.9121 79.7633 72.7103 76.88 71.7471C74.5372 70.9214 70.933 70.6462 67.3288 73.9947C66.7882 74.4992 65.9322 74.4534 65.4816 73.9029C64.9861 73.3525 65.0311 72.481 65.5718 72.0223C69.1309 68.7656 73.456 67.7564 77.736 69.2243C82.9621 71.0132 86.7465 76.0129 87.4673 79.7742C87.5574 80.3247 87.3322 80.8751 86.8817 81.1503C86.6113 81.2421 86.296 81.3338 85.9806 81.2879Z" fill="#1A141F"/>
<path d="M95.9371 117.387C94.7207 117.387 93.4592 117.295 92.1527 117.112C76.5645 114.956 70.7527 100.048 70.1219 98.3513C69.7165 97.2504 70.3021 96.0119 71.3834 95.5991C72.4647 95.1863 73.6811 95.7826 74.0866 96.8835C74.3118 97.4798 79.3127 110.965 92.6933 112.846C105.939 114.681 114.048 104.727 114.994 102.847C115.535 101.792 116.796 101.333 117.833 101.883C118.869 102.434 119.319 103.718 118.779 104.773C117.022 108.397 108.552 117.387 95.9371 117.387Z" fill="#1A141F"/>
<path d="M142.42 97.0355C142.826 94.1772 137.006 90.9551 129.422 89.8385C121.837 88.722 115.359 90.1339 114.953 92.9921C114.548 95.8503 120.367 99.0725 127.952 100.189C135.536 101.306 142.014 99.8937 142.42 97.0355Z" fill="#FDE3FF"/>
<path d="M125.497 110.983C127.244 110.246 128.074 108.207 127.35 106.428C126.627 104.649 124.624 103.804 122.877 104.541C121.129 105.278 120.3 107.317 121.023 109.096C121.747 110.875 123.75 111.72 125.497 110.983Z" fill="#D094FF"/>
<path d="M126.978 107.755C126.978 108.718 126.213 109.498 125.266 109.498C124.32 109.498 123.554 108.718 123.554 107.755C123.554 106.791 124.32 106.012 125.266 106.012C126.258 106.012 126.978 106.791 126.978 107.755Z" fill="#1A141F"/>
<path d="M121.489 42.8904C122.827 41.529 122.827 39.3218 121.489 37.9604C120.152 36.599 117.984 36.599 116.647 37.9604C115.31 39.3218 115.31 41.529 116.647 42.8904C117.984 44.2518 120.152 44.2518 121.489 42.8904Z" fill="#D094FF"/>
<path d="M121.888 40.4183C121.888 41.3816 121.122 42.1614 120.176 42.1614C119.23 42.1614 118.464 41.3816 118.464 40.4183C118.464 39.4551 119.23 38.6753 120.176 38.6753C121.122 38.6753 121.888 39.4551 121.888 40.4183Z" fill="#1A141F"/>
<path d="M94.274 30.6586C94.577 28.7582 93.3093 26.9675 91.4427 26.6591C89.5761 26.3506 87.8173 27.6412 87.5143 29.5417C87.2114 31.4422 88.479 33.2328 90.3457 33.5413C92.2123 33.8497 93.9711 32.5591 94.274 30.6586Z" fill="#D094FF"/>
<path d="M93.6845 30.0979C93.6845 31.0611 92.9186 31.8409 91.9725 31.8409C91.0264 31.8409 90.2605 31.0611 90.2605 30.0979C90.2605 29.1346 91.0264 28.3549 91.9725 28.3549C92.9186 28.3549 93.6845 29.1346 93.6845 30.0979Z" fill="#1A141F"/>
<path d="M55.7502 50.8308C57.6412 50.8308 59.1742 49.27 59.1742 47.3447C59.1742 45.4194 57.6412 43.8586 55.7502 43.8586C53.8592 43.8586 52.3262 45.4194 52.3262 47.3447C52.3262 49.27 53.8592 50.8308 55.7502 50.8308Z" fill="#D094FF"/>
<path d="M58.5434 47.3447C58.5434 48.308 57.7775 49.0878 56.8314 49.0878C55.8853 49.0878 55.1194 48.308 55.1194 47.3447C55.1194 46.3815 55.8853 45.6017 56.8314 45.6017C57.7775 45.6017 58.5434 46.3815 58.5434 47.3447Z" fill="#1A141F"/>
<path d="M100.757 78.9601C102.504 78.2233 103.334 76.184 102.61 74.4052C101.886 72.6264 99.8832 71.7817 98.1361 72.5185C96.389 73.2554 95.5593 75.2947 96.283 77.0735C97.0067 78.8523 99.0097 79.6969 100.757 78.9601Z" fill="#D094FF"/>
<path d="M102.245 75.7377C102.245 76.7009 101.479 77.4807 100.533 77.4807C99.5865 77.4807 98.8206 76.7009 98.8206 75.7377C98.8206 74.7744 99.5865 73.9946 100.533 73.9946C101.479 74.0405 102.245 74.8203 102.245 75.7377Z" fill="#1A141F"/>
<path d="M133.427 64.3687C135.174 63.6319 136.003 61.5926 135.28 59.8138C134.556 58.035 132.553 57.1903 130.806 57.9271C129.059 58.6639 128.229 60.7032 128.953 62.482C129.677 64.2608 131.68 65.1055 133.427 64.3687Z" fill="#D094FF"/>
<path d="M134.908 61.1515C134.908 62.1147 134.142 62.8945 133.196 62.8945C132.25 62.8945 131.484 62.1147 131.484 61.1515C131.484 60.1882 132.25 59.4084 133.196 59.4084C134.142 59.4084 134.908 60.1882 134.908 61.1515Z" fill="#1A141F"/>
<path d="M44.7123 81.6548C46.6034 81.6548 48.1363 80.094 48.1363 78.1687C48.1363 76.2434 46.6034 74.6826 44.7123 74.6826C42.8213 74.6826 41.2883 76.2434 41.2883 78.1687C41.2883 80.094 42.8213 81.6548 44.7123 81.6548Z" fill="#D094FF"/>
<path d="M47.5055 78.1687C47.5055 79.1319 46.7396 79.9117 45.7935 79.9117C44.8474 79.9117 44.0815 79.1319 44.0815 78.1687C44.0815 77.2054 44.8474 76.4257 45.7935 76.4257C46.7396 76.4715 47.5055 77.2054 47.5055 78.1687Z" fill="#1A141F"/>
<path d="M102.975 105.785C104.722 105.048 105.552 103.009 104.828 101.23C104.105 99.4516 102.102 98.6069 100.355 99.3437C98.6075 100.081 97.7778 102.12 98.5015 103.899C99.2252 105.677 101.228 106.522 102.975 105.785Z" fill="#D094FF"/>
<path d="M104.452 102.572C104.452 103.535 103.686 104.315 102.74 104.315C101.794 104.315 101.028 103.535 101.028 102.572C101.028 101.608 101.794 100.828 102.74 100.828C103.686 100.828 104.452 101.608 104.452 102.572Z" fill="#1A141F"/>
<path d="M69.176 127.616C71.067 127.616 72.6 126.055 72.6 124.13C72.6 122.205 71.067 120.644 69.176 120.644C67.2849 120.644 65.752 122.205 65.752 124.13C65.752 126.055 67.2849 127.616 69.176 127.616Z" fill="#D094FF"/>
<path d="M71.9692 124.13C71.9692 125.093 71.2033 125.873 70.2572 125.873C69.3111 125.873 68.5452 125.093 68.5452 124.13C68.5452 123.167 69.3111 122.387 70.2572 122.387C71.2033 122.433 71.9692 123.167 71.9692 124.13Z" fill="#1A141F"/>
<path d="M64.4969 94.7868C64.7999 92.8863 63.5322 91.0957 61.6656 90.7872C59.799 90.4788 58.0402 91.7694 57.7372 93.6699C57.4343 95.5703 58.7019 97.361 60.5686 97.6694C62.4352 97.9779 64.194 96.6873 64.4969 94.7868Z" fill="#D094FF"/>
<path d="M63.9047 94.2689C63.9047 95.2322 63.1388 96.0119 62.1927 96.0119C61.2466 96.0119 60.4807 95.2322 60.4807 94.2689C60.4807 93.3057 61.2466 92.5259 62.1927 92.5259C63.1388 92.5259 63.9047 93.3057 63.9047 94.2689Z" fill="#1A141F"/>
<path d="M75.123 67.2062C77.014 67.2062 78.547 65.6454 78.547 63.7201C78.547 61.7948 77.014 60.234 75.123 60.234C73.232 60.234 71.699 61.7948 71.699 63.7201C71.699 65.6454 73.232 67.2062 75.123 67.2062Z" fill="#D094FF"/>
<path d="M77.9614 63.7201C77.9614 64.6833 77.1955 65.4631 76.2494 65.4631C75.3032 65.4631 74.5374 64.6833 74.5374 63.7201C74.5374 62.7568 75.3032 61.9771 76.2494 61.9771C77.1955 61.9771 77.9614 62.7568 77.9614 63.7201Z" fill="#1A141F"/>
<path d="M99.4514 144.817C101.342 144.817 102.875 143.256 102.875 141.331C102.875 139.406 101.342 137.845 99.4514 137.845C97.5603 137.845 96.0273 139.406 96.0273 141.331C96.0273 143.256 97.5603 144.817 99.4514 144.817Z" fill="#D094FF"/>
<path d="M102.245 141.331C102.245 142.294 101.479 143.074 100.533 143.074C99.5865 143.074 98.8206 142.294 98.8206 141.331C98.8206 140.368 99.5865 139.588 100.533 139.588C101.479 139.588 102.245 140.368 102.245 141.331Z" fill="#1A141F"/>
<path d="M145.54 91.379C147.431 91.379 148.964 89.8183 148.964 87.8929C148.964 85.9676 147.431 84.4069 145.54 84.4069C143.649 84.4069 142.116 85.9676 142.116 87.8929C142.116 89.8183 143.649 91.379 145.54 91.379Z" fill="#D094FF"/>
<path d="M148.333 87.8929C148.333 88.8562 147.568 89.636 146.621 89.636C145.675 89.636 144.909 88.8562 144.909 87.8929C144.909 86.9297 145.675 86.1499 146.621 86.1499C147.568 86.1499 148.333 86.9297 148.333 87.8929Z" fill="#1A141F"/>
</g>
<defs>
<linearGradient id="paint0_linear_335_1978" x1="24.8745" y1="-44.4652" x2="134.251" y2="237.342" gradientUnits="userSpaceOnUse">
<stop stop-color="#E0E0E0"/>
<stop offset="1" stop-color="#9D3FE7"/>
</linearGradient>
<linearGradient id="paint1_linear_335_1978" x1="31.7861" y1="-32.4758" x2="133.384" y2="223.098" gradientUnits="userSpaceOnUse">
<stop stop-color="#D095FF"/>
<stop offset="1" stop-color="#602093"/>
</linearGradient>
<clipPath id="clip0_335_1978">
<rect width="214" height="197" fill="white"/>
</clipPath>
</defs>
</svg>
