<svg width="23" height="23" viewBox="0 0 23 23" fill="none" xmlns="http://www.w3.org/2000/svg">
<path d="M3.91667 19.3333C3.38958 19.3333 2.93821 19.1455 2.56254 18.7698C2.18688 18.3942 1.99936 17.9431 2 17.4167V5.91667C2 5.38958 2.18784 4.93821 2.5635 4.56254C2.93917 4.18688 3.39022 3.99936 3.91667 4H19.25C19.7771 4 20.2285 4.18783 20.6041 4.5635C20.9798 4.93917 21.1673 5.39022 21.1667 5.91667V17.4167C21.1667 17.9438 20.9788 18.3951 20.6032 18.7708C20.2275 19.1465 19.7764 19.334 19.25 19.3333H3.91667ZM11.5833 12.625L3.91667 7.83334V17.4167H19.25V7.83334L11.5833 12.625ZM11.5833 10.7083L19.25 5.91667H3.91667L11.5833 10.7083ZM3.91667 7.83334V5.91667V17.4167V7.83334Z" fill="#606461"/>
</svg>
