<svg width="23" height="23" viewBox="0 0 23 23" fill="none" xmlns="http://www.w3.org/2000/svg">
<path d="M11.5001 6.229C12.1355 6.229 12.7449 6.48142 13.1942 6.93073C13.6435 7.38003 13.8959 7.98942 13.8959 8.62484C13.8959 8.93946 13.8339 9.25101 13.7135 9.54168C13.5931 9.83236 13.4167 10.0965 13.1942 10.3189C12.9717 10.5414 12.7076 10.7179 12.4169 10.8383C12.1263 10.9587 11.8147 11.0207 11.5001 11.0207C10.8647 11.0207 10.2553 10.7683 9.80597 10.3189C9.35667 9.86964 9.10425 9.26025 9.10425 8.62484C9.10425 7.98942 9.35667 7.38003 9.80597 6.93073C10.2553 6.48142 10.8647 6.229 11.5001 6.229ZM11.5001 1.9165C13.2792 1.9165 14.9855 2.62327 16.2436 3.88133C17.5016 5.13939 18.2084 6.84568 18.2084 8.62484C18.2084 13.6561 11.5001 21.0832 11.5001 21.0832C11.5001 21.0832 4.79175 13.6561 4.79175 8.62484C4.79175 6.84568 5.49852 5.13939 6.75657 3.88133C8.01463 2.62327 9.72092 1.9165 11.5001 1.9165ZM11.5001 3.83317C10.2293 3.83317 9.01047 4.33801 8.11186 5.23662C7.21325 6.13523 6.70841 7.35401 6.70841 8.62484C6.70841 9.58317 6.70841 11.4998 11.5001 17.9303C16.2917 11.4998 16.2917 9.58317 16.2917 8.62484C16.2917 7.35401 15.7869 6.13523 14.8883 5.23662C13.9897 4.33801 12.7709 3.83317 11.5001 3.83317Z" fill="#606461"/>
</svg>
