<svg width="23" height="23" viewBox="0 0 23 23" fill="none" xmlns="http://www.w3.org/2000/svg">
<path d="M18.3333 11.625C18.3333 9.75625 17.6823 8.17085 16.3803 6.86879C15.0782 5.56674 13.4931 4.91603 11.625 4.91667V3C12.8229 3 13.9451 3.22776 14.9916 3.68329C16.0381 4.13882 16.9485 4.75343 17.7229 5.52713C18.4972 6.3021 19.1121 7.21251 19.5677 8.25838C20.0232 9.30424 20.2506 10.4264 20.25 11.625H18.3333ZM14.5 11.625C14.5 10.8264 14.2205 10.1476 13.6615 9.58854C13.1024 9.02951 12.4236 8.75 11.625 8.75V6.83333C12.9507 6.83333 14.0809 7.30068 15.0156 8.23538C15.9503 9.17007 16.4173 10.2999 16.4167 11.625H14.5ZM19.2438 20.25C17.1833 20.25 15.1747 19.7906 13.2178 18.8719C11.2608 17.9532 9.52785 16.7393 8.01879 15.2302C6.50974 13.7212 5.29585 11.9882 4.37713 10.0313C3.4584 8.07437 2.99936 6.06603 3 4.00625C3 3.71875 3.09583 3.47917 3.2875 3.2875C3.47917 3.09583 3.71875 3 4.00625 3H7.8875C8.11111 3 8.31076 3.07187 8.48646 3.21562C8.66215 3.35937 8.76597 3.54306 8.79792 3.76667L9.42083 7.12083C9.45278 7.34444 9.44863 7.54825 9.40838 7.73225C9.36813 7.91625 9.27644 8.07981 9.13333 8.22292L6.80938 10.5708C7.48021 11.7208 8.3229 12.799 9.33746 13.8052C10.352 14.8115 11.4659 15.6819 12.6792 16.4167L14.9313 14.1646C15.075 14.0208 15.2628 13.9129 15.4948 13.8407C15.7267 13.7685 15.9541 13.7487 16.1771 13.7812L19.4833 14.4521C19.7069 14.5 19.8906 14.608 20.0344 14.776C20.1781 14.944 20.25 15.1395 20.25 15.3625V19.2438C20.25 19.5313 20.1542 19.7708 19.9625 19.9625C19.7708 20.1542 19.5313 20.25 19.2438 20.25ZM5.89896 8.75L7.48021 7.16875L7.07292 4.91667H4.94063C5.02049 5.57153 5.13229 6.2184 5.27604 6.85729C5.41979 7.49618 5.62743 8.12708 5.89896 8.75ZM14.476 17.3271C15.099 17.5986 15.734 17.8142 16.3812 17.974C17.0284 18.1337 17.6791 18.2375 18.3333 18.2854V16.1771L16.0813 15.7219L14.476 17.3271Z" fill="#606461"/>
</svg>
