<svg width="23" height="23" viewBox="0 0 23 23" fill="none" xmlns="http://www.w3.org/2000/svg">
<path fill-rule="evenodd" clip-rule="evenodd" d="M18.953 4.24538C19.1898 4.14571 19.449 4.11133 19.7036 4.14583C19.9582 4.18033 20.1989 4.28244 20.4007 4.44154C20.6025 4.60064 20.7579 4.81091 20.8508 5.05046C20.9437 5.29002 20.9707 5.5501 20.929 5.80363L18.7555 18.9874C18.5447 20.2591 17.1494 20.9884 15.9831 20.355C15.0075 19.825 13.5585 19.0085 12.2552 18.1565C11.6035 17.7301 9.60729 16.3645 9.85262 15.3927C10.0635 14.5618 13.4176 11.4396 15.3343 9.5833C16.0866 8.85401 15.7435 8.4333 14.8551 9.10413C12.6481 10.7697 9.10704 13.3026 7.93595 14.0156C6.90287 14.6443 6.36428 14.7516 5.72028 14.6443C4.54537 14.4488 3.45574 14.1459 2.56641 13.777C1.36466 13.2786 1.42312 11.6265 2.56545 11.1454L18.953 4.24538Z" fill="#606461"/>
</svg>
