<svg width="214" height="197" viewBox="0 0 214 197" fill="none" xmlns="http://www.w3.org/2000/svg">
<g clip-path="url(#clip0_2_1869)">
<path d="M202.378 41.7361C200.184 43.719 198.158 44.7697 198.444 46.4533C198.439 46.5181 198.434 46.5828 198.429 46.6476C198.313 49.4083 198.07 52.1593 197.729 54.9354C197.226 59.0023 196.567 63.0248 195.342 66.9389C194.563 69.1928 193.877 71.4863 192.128 73.0795C183.528 78.32 168.692 80.8683 158.743 80.4015C153.309 79.7257 152.624 88.2426 158.059 88.4949C168.911 88.4117 187.356 83.7279 195.685 76.6096C201.296 69.5768 201.045 56.6223 201.067 47.5986C202.189 47.5214 203.463 47.13 204.66 46.5046C207.282 45.1735 208.924 42.8879 208.111 41.4248C206.778 38.8466 204.537 39.7832 202.378 41.7361Z" fill="#1A141F"/>
<path d="M35.9597 129.007C32.7159 127.356 29.2469 127.218 25.913 125.75C20.1463 123.457 9.51383 119.558 8.65783 112.54C8.88309 107.632 12.9378 103.733 16.6772 100.889C20.8671 97.8615 25.7778 95.8432 30.7787 94.9717C32.3555 94.6965 33.4368 93.137 33.1214 91.5315C31.4995 85.2016 16.6772 94.4672 13.7488 96.8983C9.01825 100.751 4.28772 106.164 4.51299 112.769C5.86457 123.457 21.1825 127.677 29.9227 130.016C27.1745 131.117 26.769 135.153 28.6161 136.621C33.1214 140.245 39.9244 133.181 35.9597 129.007Z" fill="#1A141F"/>
<path d="M94.6523 159.36C95.4186 155.792 96.1254 152.247 96.7087 148.646C96.727 148.605 96.7041 148.544 96.7224 148.502C96.8953 146.974 95.9072 145.62 94.5127 145.538C93.1183 145.456 91.8982 146.558 91.7253 148.086C91.3385 151.575 90.851 155.069 90.3042 158.587C89.7162 162.085 89.046 165.546 88.2522 168.951C86.7331 175.49 84.8254 181.903 82.2638 188.119C80.9145 186.802 78.9617 185.511 77.3065 185.009C74.3847 184.131 73.5309 186.203 73.1292 187.577C72.819 188.741 80.1441 191.171 82.8414 191.093C83.0654 191.145 83.2848 191.094 83.4813 190.983C83.5408 190.959 83.6002 190.936 83.6596 190.913C83.9156 190.778 84.1075 190.564 84.2353 190.271C87.4505 183.801 90.0026 176.928 92.0244 169.914C92.9781 166.482 93.8449 162.909 94.6523 159.36Z" fill="#1A141F"/>
<path d="M127.142 181.191C125.565 181.925 123.763 183.439 122.592 184.815C120.88 181.925 119.348 178.944 117.951 175.871C116.42 172.522 114.978 169.082 113.671 165.642C112.365 162.156 111.103 158.67 110.022 155.138C108.896 151.606 107.905 148.028 107.049 144.496C107.049 144.45 107.049 144.404 107.004 144.358C106.598 143.028 105.202 142.248 103.895 142.661C102.589 143.074 101.823 144.496 102.228 145.826C103.309 149.496 104.526 153.119 105.832 156.651C107.139 160.183 108.581 163.715 110.112 167.155C111.644 170.596 113.311 174.036 115.068 177.384C116.87 180.733 118.762 183.99 120.925 187.155C121.105 187.384 121.33 187.567 121.601 187.659H121.646C121.916 187.751 122.186 187.751 122.412 187.659C125.07 187.246 131.963 183.898 131.512 182.889C130.972 181.696 129.981 179.907 127.142 181.191Z" fill="#1A141F"/>
<path d="M172.256 91.4709C171.355 97.9385 164.552 102.663 162.164 108.397C159.686 114.314 160.948 122.57 157.073 127.524C153.199 132.57 144.999 133.212 139.998 137.019C134.998 140.826 132.069 148.624 126.212 151.009C120.446 153.349 113.057 149.771 106.795 150.551C100.713 151.285 94.3602 156.56 88.0078 155.642C81.6553 154.725 77.0149 147.799 71.3834 145.368C65.5716 142.845 57.4621 144.129 52.5964 140.184C47.6406 136.24 47.0099 127.891 43.2705 122.8C39.5311 117.708 31.8722 114.727 29.5295 108.764C27.2318 102.892 30.7459 95.3698 29.98 88.994C29.2591 82.8016 24.0781 76.334 24.9791 69.8665C25.8802 63.3989 32.6831 58.6743 35.0709 52.9406C37.5488 47.0235 36.2874 38.767 40.1619 33.8131C44.0364 28.7675 52.236 28.1253 57.2368 24.3181C62.2377 20.511 65.1661 12.7132 71.0229 10.328C76.7897 7.98863 84.1783 11.5664 90.4406 10.7867C96.5227 10.0528 102.875 4.77777 109.228 5.69516C115.58 6.61255 120.22 13.5388 125.852 15.9699C131.664 18.4927 139.773 17.2084 144.639 21.1531C149.595 25.0979 150.225 33.4461 153.965 38.5377C157.704 43.6292 165.363 46.6107 167.706 52.5737C170.004 58.445 166.489 65.9676 167.255 72.3434C167.976 78.5358 173.157 85.0034 172.256 91.4709Z" fill="url(#paint0_linear_2_1869)"/>
<path d="M106.93 13.4012C114.634 12.2545 120.626 16.4286 126.167 21.3825C140.269 29.96 157.254 32.437 155.542 53.491C162.209 99.8191 174.419 89.4985 140.134 127.387C128.916 141.606 106.569 152.248 88.8187 149.954C80.1235 148.165 73.0052 142.065 65.2561 137.707C53.8578 132.891 49.2625 126.561 44.3517 115.506C41.0178 110.415 35.6566 106.791 33.2688 101.195C31.1964 96.3331 31.737 90.8287 32.2776 85.5538C33.6292 75.8753 33.6292 65.8758 35.9719 56.3808C37.9543 50.8765 42.9551 46.9317 45.1627 41.4733C46.0187 39.3174 46.4692 36.9322 47.9109 35.0974C52.1909 30.0977 59.6246 30.0059 64.8507 26.7492C76.5193 16.6579 91.9273 13.6305 106.93 13.4012Z" fill="url(#paint1_linear_2_1869)"/>
<path d="M56.516 38.2166C59.3543 35.1434 64.0849 35.6938 67.8693 33.9966C69.8966 33.0792 71.3834 31.3362 73.0053 29.7308C84.2234 18.6304 102.74 16.0617 116.436 23.7219C118.959 25.1438 121.392 26.9327 122.924 29.4097C124.5 32.0242 124.996 35.1434 125.717 38.079C127.384 44.7759 130.492 51.0142 133.556 57.2065C134.007 58.1239 134.502 59.0872 135.313 59.7294C138.061 61.977 142.521 59.3165 145.54 61.1513C148.288 62.8026 148.063 66.7933 148.108 70.05C148.153 74.4076 149.324 78.7193 151.397 82.4806C152.073 83.7191 152.884 85.0493 152.658 86.4254C152.523 87.2969 151.983 88.0308 151.532 88.7647C147.883 94.6819 148.333 102.159 147.567 109.085C146.801 116.011 143.828 123.901 137.205 125.69C133.646 126.653 129.907 125.598 126.212 125.231C122.563 124.91 118.238 125.644 116.391 128.855C114.273 132.478 116.211 137.753 113.553 141.01C112.607 142.203 111.165 142.891 109.768 143.441C103.911 145.826 97.5139 146.744 91.2516 146.147C90.8912 142.982 90.4857 139.817 90.1253 136.652C90.0352 136.01 89.9451 135.322 89.5846 134.818C88.4133 133.258 86.0255 134.451 84.1333 135.001C78.8621 136.515 73.3657 131.515 68.0945 133.075C66.6529 133.487 65.3463 134.359 63.8596 134.313C62.9135 134.267 62.0124 133.854 61.2015 133.35C57.6423 131.148 55.3446 127.341 53.3623 123.625C46.199 110.094 40.9729 95.5075 37.9093 80.4623C37.3686 77.756 36.8731 74.9121 37.4587 72.2058C38.7653 66.0593 45.1177 61.977 46.4693 55.8305C47.3703 51.794 45.2979 46.7025 48.0461 43.6751C49.8482 41.932 54.804 40.0973 56.516 38.2166Z" fill="#B868F9"/>
<path d="M65.3464 43.0328C59.895 48.0326 60.1203 54.7295 68.7253 54.9589C71.2482 55.0965 73.9063 54.8672 76.204 55.9221C79.4028 57.39 80.9346 60.876 81.4301 64.2245C82.0609 69.2701 81.5202 74.7286 85.0343 78.9486C86.476 80.8292 89.1341 82.5264 91.3417 81.4714C98.3699 75.9671 85.0343 71.0132 86.3409 65.1419C87.0617 61.6558 92.0626 60.5091 95.6217 61.7934C99.1358 63.0778 101.794 65.8299 105.083 67.6189C110.039 70.6462 117.112 68.9949 116.932 62.8943C117.607 55.8304 113.057 49.6839 107.11 45.9685C106.344 44.73 107.561 43.3081 108.101 41.9778C109.543 39.1339 105.443 30.2811 101.569 32.0701C99.1358 34.3635 100.893 38.0789 99.9017 40.9228C98.7303 44.8676 92.8735 46.7024 89.4495 44.1796C85.8903 41.565 84.3586 36.1066 79.4028 35.0516C74.1767 33.859 68.4099 39.8678 65.3464 43.0328Z" fill="#9D3FE7"/>
<path d="M110.849 134.405C106.074 136.973 95.036 134.726 89.9901 131.653C85.62 128.442 81.5202 124.038 78.9522 119.222C75.2128 110.415 80.1236 101.47 82.196 93.3516C83.953 85.0951 93.6393 92.526 94.4953 101.47C95.937 116.516 130.988 109.543 117.247 125.139C115.174 128.029 113.778 132.295 110.849 134.405Z" fill="#9D3FE7"/>
<path d="M57.372 69.6829C61.9674 74.8662 61.607 66.2886 66.2474 70.2792C67.1935 71.0131 68.3198 71.8388 69.4912 71.4718C71.924 70.4627 71.3384 67.0225 69.6714 65.4629C67.2836 63.2612 63.8596 62.7108 60.9312 61.4723C52.9118 57.5275 53.5876 65.2336 57.372 69.6829Z" fill="#9D3FE7"/>
<path d="M66.4276 119.772C63.5442 121.791 59.895 120.369 58.0028 117.708C54.9392 114.314 51.8756 110.874 48.812 107.479C43.9914 102.984 51.0196 97.6175 43.2705 89.5445C43.9463 87.6638 46.7396 87.4345 48.2714 88.6729C49.8482 89.9114 50.479 91.9755 51.0196 93.9021C52.0558 96.012 52.1459 102.847 55.2545 101.883C60.1202 101.241 64.8057 99.3146 68.7253 96.3331C69.7615 95.5533 71.1131 94.6818 72.1493 95.4157C74.6722 97.9844 69.5362 100.186 69.1308 102.526C69.9417 107.571 71.3834 116.149 66.4276 119.772Z" fill="#9D3FE7"/>
<path d="M118.148 66.885C114.724 70.9674 121.977 72.5269 123.104 75.6002C123.374 79.0863 124.59 82.8017 127.924 84.453C138.647 89.6821 145.765 73.1691 134.367 69.1326C127.924 68.628 129.772 62.3898 124.005 60.6009C120.401 59.4542 122.969 63.032 118.148 66.885Z" fill="#9D3FE7"/>
<path d="M133.241 101.425C128.825 102.801 132.7 108.213 131.439 111.241C130.763 112.892 128.871 114.314 129.501 115.965C133.06 121.286 139.863 114.589 140.314 110.048C139.593 106.287 141.08 104.498 141.981 101.058C141.936 98.7641 142.386 96.2872 141.891 94.0854C141.125 91.9754 138.287 91.9754 138.106 94.3607C137.385 96.9293 138.106 99.5439 137.926 102.113C137.025 106.608 134.817 101.195 133.241 101.425Z" fill="#9D3FE7"/>
<path d="M79.4909 83.3096C79.8968 80.4514 74.0773 77.2293 66.4926 76.1127C58.9079 74.9962 52.4303 76.4081 52.0244 79.2663C51.6185 82.1245 57.438 85.3467 65.0227 86.4632C72.6074 87.5798 79.085 86.1679 79.4909 83.3096Z" fill="#FDE3FF"/>
<path d="M127.113 79.9118C126.483 80.5999 125.537 80.9668 124.636 80.8292C124.681 81.0586 124.771 81.3338 124.816 81.609C125.266 83.9483 124.951 87.8472 122.788 89.2692C119.995 90.6911 116.346 89.8655 113.688 87.9848C112.426 87.1133 111.39 85.9666 110.759 84.6822C110.669 84.4988 110.624 84.3611 110.534 84.1777C109.002 80.0035 113.823 75.1873 118.103 76.1047C120.22 76.1964 121.707 76.7009 122.743 77.5266C123.014 77.389 123.239 77.2055 123.419 77.022C123.509 76.8844 123.554 76.701 123.509 76.5633C123.509 76.5633 123.509 76.4716 123.464 76.4716C123.104 76.2423 122.969 75.7377 123.194 75.3707C123.419 75.0038 123.915 74.8662 124.275 75.0955C124.681 75.3249 124.951 75.7377 125.041 76.2423C125.176 76.8386 125.041 77.4807 124.681 77.9853C124.455 78.3522 124.14 78.6275 123.78 78.8109C123.87 78.9944 124.005 79.1779 124.095 79.3614C124.275 79.2696 124.455 79.2238 124.681 79.3155C125.131 79.4531 125.627 79.2696 125.942 78.9486C126.257 78.6275 126.348 78.077 126.212 77.6183C126.077 77.2055 126.257 76.7468 126.663 76.5633C127.068 76.4257 127.519 76.6092 127.699 77.022C128.06 77.9853 127.834 79.132 127.113 79.9118Z" fill="#1A141F"/>
<path d="M117.878 80.2329C117.607 81.9759 118.824 83.6272 120.581 83.9025C122.293 84.1777 123.915 82.9392 124.185 81.1503C124.455 79.4072 123.239 77.7559 121.482 77.4807C119.77 77.2514 118.148 78.4899 117.878 80.2329Z" fill="white"/>
<path d="M114.589 83.8107L113.688 87.9848C112.426 87.1133 111.39 85.9665 110.759 84.6822C110.669 84.4987 110.624 84.3611 110.534 84.1776L114.589 83.8107Z" fill="white"/>
<path d="M85.9804 81.2879C85.7551 81.2421 85.5749 81.1503 85.3947 81.0127C84.5838 80.4164 82.1509 78.9945 80.529 79.6825C79.8532 79.9577 79.0873 79.6366 78.817 78.9486C78.5467 78.2605 78.8621 77.4808 79.5379 77.2055C80.9345 76.6551 82.3762 76.7927 83.5926 77.1597C82.196 74.9121 79.7631 72.7103 76.8798 71.7471C74.537 70.9214 70.9328 70.6462 67.3286 73.9947C66.788 74.4992 65.932 74.4534 65.4814 73.9029C64.9859 73.3525 65.0309 72.481 65.5715 72.0223C69.1307 68.7656 73.4558 67.7564 77.7358 69.2243C82.9619 71.0132 86.7463 76.0129 87.4671 79.7742C87.5572 80.3247 87.332 80.8751 86.8814 81.1503C86.6111 81.2421 86.2958 81.3338 85.9804 81.2879Z" fill="#1A141F"/>
<path d="M95.937 117.387C94.7206 117.387 93.4591 117.295 92.1526 117.112C76.5644 114.956 70.7526 100.048 70.1219 98.3513C69.7164 97.2504 70.3021 96.0119 71.3833 95.5991C72.4646 95.1863 73.681 95.7826 74.0865 96.8835C74.3118 97.4798 79.3126 110.965 92.6932 112.846C105.939 114.681 114.048 104.727 114.994 102.847C115.535 101.792 116.796 101.333 117.833 101.883C118.869 102.434 119.319 103.718 118.779 104.773C117.022 108.397 108.552 117.387 95.937 117.387Z" fill="#1A141F"/>
<path d="M142.42 97.0355C142.826 94.1772 137.006 90.9551 129.421 89.8385C121.837 88.722 115.359 90.1339 114.953 92.9921C114.547 95.8503 120.367 99.0725 127.952 100.189C135.536 101.306 142.014 99.8937 142.42 97.0355Z" fill="#FDE3FF"/>
<path d="M125.497 110.983C127.244 110.246 128.074 108.207 127.35 106.428C126.627 104.649 124.624 103.804 122.877 104.541C121.129 105.278 120.3 107.317 121.023 109.096C121.747 110.875 123.75 111.72 125.497 110.983Z" fill="#D094FF"/>
<path d="M126.978 107.755C126.978 108.718 126.212 109.498 125.266 109.498C124.32 109.498 123.554 108.718 123.554 107.755C123.554 106.791 124.32 106.012 125.266 106.012C126.258 106.012 126.978 106.791 126.978 107.755Z" fill="#1A141F"/>
<path d="M121.489 42.8904C122.826 41.529 122.826 39.3218 121.489 37.9604C120.152 36.599 117.984 36.599 116.647 37.9604C115.31 39.3218 115.31 41.529 116.647 42.8904C117.984 44.2518 120.152 44.2518 121.489 42.8904Z" fill="#D094FF"/>
<path d="M121.887 40.4183C121.887 41.3816 121.121 42.1614 120.175 42.1614C119.229 42.1614 118.463 41.3816 118.463 40.4183C118.463 39.4551 119.229 38.6753 120.175 38.6753C121.121 38.6753 121.887 39.4551 121.887 40.4183Z" fill="#1A141F"/>
<path d="M94.2739 30.6586C94.5769 28.7582 93.3093 26.9675 91.4426 26.6591C89.576 26.3506 87.8172 27.6412 87.5143 29.5417C87.2113 31.4422 88.4789 33.2328 90.3456 33.5413C92.2122 33.8497 93.971 32.5591 94.2739 30.6586Z" fill="#D094FF"/>
<path d="M93.6844 30.0979C93.6844 31.0611 92.9185 31.8409 91.9724 31.8409C91.0262 31.8409 90.2603 31.0611 90.2603 30.0979C90.2603 29.1346 91.0262 28.3549 91.9724 28.3549C92.9185 28.3549 93.6844 29.1346 93.6844 30.0979Z" fill="#1A141F"/>
<path d="M55.7501 50.8308C57.6411 50.8308 59.1741 49.27 59.1741 47.3447C59.1741 45.4194 57.6411 43.8586 55.7501 43.8586C53.8591 43.8586 52.3261 45.4194 52.3261 47.3447C52.3261 49.27 53.8591 50.8308 55.7501 50.8308Z" fill="#D094FF"/>
<path d="M58.5434 47.3447C58.5434 48.308 57.7775 49.0878 56.8314 49.0878C55.8853 49.0878 55.1194 48.308 55.1194 47.3447C55.1194 46.3815 55.8853 45.6017 56.8314 45.6017C57.7775 45.6017 58.5434 46.3815 58.5434 47.3447Z" fill="#1A141F"/>
<path d="M100.757 78.9601C102.504 78.2233 103.333 76.184 102.61 74.4052C101.886 72.6264 99.883 71.7817 98.1359 72.5185C96.3888 73.2554 95.5591 75.2947 96.2828 77.0735C97.0065 78.8523 99.0095 79.6969 100.757 78.9601Z" fill="#D094FF"/>
<path d="M102.244 75.7377C102.244 76.7009 101.478 77.4807 100.532 77.4807C99.5863 77.4807 98.8204 76.7009 98.8204 75.7377C98.8204 74.7744 99.5863 73.9946 100.532 73.9946C101.478 74.0405 102.244 74.8203 102.244 75.7377Z" fill="#1A141F"/>
<path d="M133.427 64.3687C135.174 63.6319 136.003 61.5926 135.28 59.8138C134.556 58.035 132.553 57.1903 130.806 57.9271C129.059 58.6639 128.229 60.7032 128.953 62.482C129.677 64.2608 131.68 65.1055 133.427 64.3687Z" fill="#D094FF"/>
<path d="M134.908 61.1515C134.908 62.1147 134.142 62.8945 133.196 62.8945C132.249 62.8945 131.484 62.1147 131.484 61.1515C131.484 60.1882 132.249 59.4084 133.196 59.4084C134.142 59.4084 134.908 60.1882 134.908 61.1515Z" fill="#1A141F"/>
<path d="M44.7122 81.6548C46.6032 81.6548 48.1362 80.094 48.1362 78.1687C48.1362 76.2434 46.6032 74.6826 44.7122 74.6826C42.8212 74.6826 41.2882 76.2434 41.2882 78.1687C41.2882 80.094 42.8212 81.6548 44.7122 81.6548Z" fill="#D094FF"/>
<path d="M47.5055 78.1687C47.5055 79.1319 46.7396 79.9117 45.7934 79.9117C44.8473 79.9117 44.0815 79.1319 44.0815 78.1687C44.0815 77.2054 44.8473 76.4257 45.7934 76.4257C46.7396 76.4715 47.5055 77.2054 47.5055 78.1687Z" fill="#1A141F"/>
<path d="M102.975 105.785C104.722 105.048 105.552 103.009 104.828 101.23C104.105 99.4516 102.102 98.6069 100.354 99.3437C98.6073 100.081 97.7776 102.12 98.5013 103.899C99.225 105.677 101.228 106.522 102.975 105.785Z" fill="#D094FF"/>
<path d="M104.452 102.572C104.452 103.535 103.686 104.315 102.74 104.315C101.794 104.315 101.028 103.535 101.028 102.572C101.028 101.608 101.794 100.828 102.74 100.828C103.686 100.828 104.452 101.608 104.452 102.572Z" fill="#1A141F"/>
<path d="M69.1758 127.616C71.0668 127.616 72.5998 126.055 72.5998 124.13C72.5998 122.205 71.0668 120.644 69.1758 120.644C67.2848 120.644 65.7518 122.205 65.7518 124.13C65.7518 126.055 67.2848 127.616 69.1758 127.616Z" fill="#D094FF"/>
<path d="M71.969 124.13C71.969 125.093 71.2031 125.873 70.257 125.873C69.3109 125.873 68.545 125.093 68.545 124.13C68.545 123.167 69.3109 122.387 70.257 122.387C71.2031 122.433 71.969 123.167 71.969 124.13Z" fill="#1A141F"/>
<path d="M64.4969 94.7868C64.7998 92.8863 63.5322 91.0957 61.6656 90.7872C59.7989 90.4788 58.0402 91.7694 57.7372 93.6699C57.4343 95.5703 58.7019 97.361 60.5685 97.6694C62.4352 97.9779 64.1939 96.6873 64.4969 94.7868Z" fill="#D094FF"/>
<path d="M63.9046 94.2689C63.9046 95.2322 63.1388 96.0119 62.1927 96.0119C61.2465 96.0119 60.4807 95.2322 60.4807 94.2689C60.4807 93.3057 61.2465 92.5259 62.1927 92.5259C63.1388 92.5259 63.9046 93.3057 63.9046 94.2689Z" fill="#1A141F"/>
<path d="M75.1227 67.2062C77.0138 67.2062 78.5467 65.6454 78.5467 63.7201C78.5467 61.7948 77.0138 60.234 75.1227 60.234C73.2317 60.234 71.6987 61.7948 71.6987 63.7201C71.6987 65.6454 73.2317 67.2062 75.1227 67.2062Z" fill="#D094FF"/>
<path d="M77.9611 63.7201C77.9611 64.6833 77.1952 65.4631 76.2491 65.4631C75.303 65.4631 74.5371 64.6833 74.5371 63.7201C74.5371 62.7568 75.303 61.9771 76.2491 61.9771C77.1952 61.9771 77.9611 62.7568 77.9611 63.7201Z" fill="#1A141F"/>
<path d="M99.4511 144.817C101.342 144.817 102.875 143.256 102.875 141.331C102.875 139.406 101.342 137.845 99.4511 137.845C97.5601 137.845 96.0271 139.406 96.0271 141.331C96.0271 143.256 97.5601 144.817 99.4511 144.817Z" fill="#D094FF"/>
<path d="M102.244 141.331C102.244 142.294 101.478 143.074 100.532 143.074C99.5863 143.074 98.8204 142.294 98.8204 141.331C98.8204 140.368 99.5863 139.588 100.532 139.588C101.478 139.588 102.244 140.368 102.244 141.331Z" fill="#1A141F"/>
<path d="M145.54 91.379C147.431 91.379 148.964 89.8183 148.964 87.8929C148.964 85.9676 147.431 84.4069 145.54 84.4069C143.649 84.4069 142.116 85.9676 142.116 87.8929C142.116 89.8183 143.649 91.379 145.54 91.379Z" fill="#D094FF"/>
<path d="M148.333 87.8929C148.333 88.8562 147.567 89.636 146.621 89.636C145.675 89.636 144.909 88.8562 144.909 87.8929C144.909 86.9297 145.675 86.1499 146.621 86.1499C147.567 86.1499 148.333 86.9297 148.333 87.8929Z" fill="#1A141F"/>
</g>
<defs>
<linearGradient id="paint0_linear_2_1869" x1="24.8743" y1="-44.4652" x2="134.251" y2="237.342" gradientUnits="userSpaceOnUse">
<stop stop-color="#BB64FF"/>
<stop offset="1" stop-color="#9D3FE7"/>
</linearGradient>
<linearGradient id="paint1_linear_2_1869" x1="31.7858" y1="-32.4758" x2="133.383" y2="223.098" gradientUnits="userSpaceOnUse">
<stop stop-color="#9D3FE7"/>
<stop offset="1" stop-color="#602093"/>
</linearGradient>
<clipPath id="clip0_2_1869">
<rect width="214" height="197" fill="white"/>
</clipPath>
</defs>
</svg>
